<!DOCTYPE svg PUBLIC "-//W3C//DTD SVG 20010904//EN" "http://www.w3.org/TR/2001/REC-SVG-20010904/DTD/svg10.dtd">
<svg version="1.0" xmlns="http://www.w3.org/2000/svg" width="400px" height="400px" viewBox="0 0 4000 4000" preserveAspectRatio="xMidYMid meet">
<g id="layer101" fill="#161f64" stroke="none">
 <path d="M0 2000 l0 -2000 2000 0 2000 0 0 2000 0 2000 -2000 0 -2000 0 0 -2000z"/>
 </g>
<g id="layer102" fill="#133177" stroke="none">
 <path d="M0 2000 l0 -2000 2000 0 2000 0 0 2000 0 2000 -2000 0 -2000 0 0 -2000z m2461 1641 c13 -11 21 -22 18 -25 -8 -9 -89 26 -83 35 9 15 41 10 65 -10z m369 -31 c26 -26 25 -63 -2 -94 l-23 -26 -57 21 c-32 12 -58 25 -58 29 0 4 17 25 38 48 43 47 71 53 102 22z"/>
 </g>
<g id="layer103" fill="#113e84" stroke="none">
 <path d="M0 2000 l0 -2000 2000 0 2000 0 0 2000 0 2000 -2000 0 -2000 0 0 -2000z m2469 1634 c12 -15 21 -32 21 -38 0 -14 -98 -156 -108 -156 -11 0 -101 35 -108 42 -7 7 88 144 114 166 25 20 59 14 81 -14z m-411 -20 c13 -9 22 -26 22 -40 0 -28 -6 -27 -77 2 -37 16 -41 28 -15 43 24 15 44 13 70 -5z m770 0 c42 -29 30 -65 -59 -180 -45 -57 -83 -104 -84 -104 -8 0 -102 34 -108 40 -8 7 75 128 145 213 43 51 68 58 106 31z m184 -261 c24 -22 23 -58 -4 -96 -12 -18 -22 -33 -23 -35 -1 -1 -29 8 -63 20 l-61 22 21 30 c53 78 91 95 130 59z"/>
 </g>
<g id="layer104" fill="#0f4d94" stroke="none">
 <path d="M0 2000 l0 -2000 2000 0 2000 0 0 2000 0 2000 -2000 0 -2000 0 0 -2000z m2464 1645 c25 -26 29 -54 9 -85 -10 -16 -57 -85 -105 -153 l-88 -124 -59 21 -59 20 26 41 c69 110 186 276 200 285 25 14 59 12 76 -5z m-402 -32 c28 -25 22 -68 -18 -131 -61 -96 -57 -94 -122 -70 -32 12 -59 23 -61 24 -2 2 10 20 26 41 17 21 42 59 57 86 40 68 80 85 118 50z m770 0 c37 -33 24 -65 -89 -216 -60 -78 -119 -159 -133 -180 -14 -20 -30 -37 -36 -37 -26 0 -104 33 -104 44 0 21 205 310 268 379 29 31 66 35 94 10z m180 -260 c28 -25 22 -60 -26 -132 -24 -36 -52 -86 -62 -111 -9 -25 -18 -47 -20 -49 -4 -5 -103 30 -109 39 -13 21 74 194 125 248 25 26 66 29 92 5z"/>
 </g>
<g id="layer105" fill="#0c5da4" stroke="none">
 <path d="M0 2000 l0 -2000 2000 0 2000 0 0 2000 0 2000 -2000 0 -2000 0 0 -2000z m2470 1640 c11 -11 20 -30 20 -41 0 -12 -31 -65 -69 -118 -82 -114 -163 -240 -215 -334 -41 -74 -37 -72 -113 -40 -28 11 -33 17 -27 36 18 59 167 305 270 444 46 62 58 73 84 73 17 0 39 -9 50 -20z m-405 -30 c9 -10 18 -30 18 -44 0 -72 -230 -347 -289 -345 -11 0 -45 10 -76 22 l-58 22 65 48 c70 52 147 138 203 227 19 30 42 63 50 73 20 23 65 22 87 -3z m767 3 c38 -34 24 -67 -96 -227 -62 -83 -139 -190 -170 -238 -51 -80 -59 -88 -88 -88 -37 0 -68 25 -68 55 0 37 240 396 325 488 29 31 69 35 97 10z m182 -259 c26 -25 19 -64 -23 -128 -58 -88 -80 -145 -93 -234 -11 -72 -10 -85 9 -134 l20 -55 -76 27 c-70 26 -76 30 -83 61 -8 36 5 155 23 224 14 51 52 125 101 198 34 51 43 57 73 57 18 0 41 -7 49 -16z"/>
 </g>
<g id="layer106" fill="#096cb3" stroke="none">
 <path d="M0 2000 l0 -2000 2000 0 2000 0 0 2000 0 2000 -2000 0 -2000 0 0 -2000z m2470 1640 c32 -32 24 -60 -42 -150 -138 -188 -266 -413 -324 -572 l-28 -76 -55 20 c-31 11 -57 22 -59 23 -8 7 77 213 130 315 57 111 218 363 273 428 32 38 74 43 105 12z m-406 -25 c25 -25 28 -52 10 -87 -95 -186 -309 -374 -486 -429 -101 -32 -143 -26 -335 43 -95 35 -173 66 -173 70 0 15 121 20 220 10 164 -18 227 -16 287 12 133 62 245 161 330 290 25 39 53 79 61 89 19 21 65 22 86 2z m775 -12 c14 -17 19 -33 15 -47 -4 -12 -55 -86 -114 -166 -59 -80 -134 -185 -165 -233 -65 -101 -93 -120 -134 -89 -42 31 -38 61 23 159 60 98 259 371 284 391 27 21 69 14 91 -15z m180 -249 c24 -23 16 -66 -22 -120 -52 -73 -84 -148 -97 -229 -17 -108 -7 -140 103 -321 49 -80 117 -207 117 -217 0 -3 -38 9 -84 26 -73 27 -86 35 -108 71 -14 23 -48 79 -77 126 -29 47 -61 116 -73 154 -19 64 -20 77 -9 158 14 111 48 200 107 290 58 87 98 105 143 62z m-1242 -375 c7 -13 11 -25 9 -26 -5 -5 -96 29 -102 38 -8 13 38 28 61 19 11 -4 25 -18 32 -31z m621 -35 c13 -9 22 -26 22 -41 0 -26 -37 -141 -50 -156 -4 -5 -31 0 -59 10 -59 20 -60 26 -30 110 31 87 68 111 117 77z m252 -224 c20 -20 25 -45 14 -73 -5 -13 -13 -13 -64 4 -49 17 -57 23 -53 40 6 23 40 49 65 49 10 0 27 -9 38 -20z"/>
 </g>
<g id="layer107" fill="#067dc5" stroke="none">
 <path d="M0 2000 l0 -2000 2000 0 2000 0 0 2000 0 2000 -2000 0 -2000 0 0 -2000z m2474 1638 c25 -36 19 -62 -31 -129 -204 -277 -327 -518 -384 -749 -37 -149 -69 -181 -125 -125 -22 22 -25 31 -19 68 11 69 52 216 85 302 65 167 229 450 349 603 36 45 46 52 76 52 24 0 39 -7 49 -22z m-404 -28 c28 -28 25 -47 -16 -116 -88 -146 -203 -262 -335 -337 -121 -68 -171 -81 -293 -73 -56 3 -146 9 -201 12 -143 7 -162 -6 -186 -133 l-11 -61 -57 21 c-31 11 -57 21 -59 22 -1 1 4 37 13 80 18 98 48 145 112 176 45 23 57 24 193 20 348 -8 315 -12 405 39 98 56 209 159 272 253 26 40 56 82 67 95 24 28 69 29 96 2z m764 5 c21 -22 29 -51 17 -73 -5 -10 -53 -76 -107 -147 -54 -72 -126 -174 -161 -227 -34 -54 -72 -102 -83 -108 -40 -21 -90 12 -90 59 0 42 277 450 338 499 22 17 67 15 86 -3z m185 -260 c26 -25 16 -68 -29 -135 -53 -78 -76 -137 -91 -230 -14 -93 -3 -123 107 -307 99 -165 161 -299 204 -444 37 -125 38 -143 8 -133 -106 32 -106 33 -142 134 -46 133 -91 226 -175 363 -40 65 -87 149 -104 185 -29 62 -32 75 -31 162 1 72 8 114 27 172 27 84 104 218 140 243 24 17 63 13 86 -10z m-1253 -360 c28 -28 28 -22 -9 -165 -19 -71 -27 -87 -49 -98 -34 -16 -76 1 -85 36 -6 24 7 95 33 183 21 68 67 87 110 44z m-336 -55 c11 -11 20 -25 20 -31 0 -12 -22 -142 -25 -146 -1 -2 -29 6 -62 18 l-60 20 12 60 c7 33 21 69 30 79 23 26 60 25 85 0z m982 -11 c19 -25 19 -26 -16 -129 -20 -56 -43 -142 -51 -189 -9 -47 -20 -96 -25 -108 -13 -30 -54 -39 -85 -19 -21 14 -25 24 -25 69 1 97 69 348 107 389 24 26 71 20 95 -13z m238 -209 c22 -22 24 -45 10 -105 -6 -22 -15 -85 -21 -140 -12 -115 -26 -140 -73 -131 -56 11 -59 20 -53 136 7 122 27 212 52 240 23 26 60 25 85 0z m291 -489 c34 -27 20 -34 -30 -14 -29 11 -38 19 -29 25 20 12 34 10 59 -11z"/>
 </g>
<g id="layer108" fill="#038ed7" stroke="none">
 <path d="M0 2000 l0 -2000 2000 0 2000 0 0 2000 0 2000 -2000 0 -2000 0 0 -2000z m2474 1638 c9 -12 16 -32 16 -43 0 -12 -36 -72 -81 -135 -198 -280 -316 -526 -360 -749 -14 -71 -36 -101 -74 -101 -30 0 -65 32 -65 59 0 68 62 279 122 415 66 151 210 389 317 524 36 44 46 52 76 52 24 0 39 -7 49 -22z m-404 -28 c11 -11 20 -30 20 -42 0 -42 -99 -180 -199 -278 -80 -79 -114 -104 -201 -150 l-105 -55 -115 0 c-63 0 -164 4 -225 8 -97 8 -114 6 -145 -10 l-35 -18 -37 -170 c-39 -174 -53 -205 -97 -205 -30 0 -61 30 -61 58 0 46 66 345 83 379 23 44 61 71 126 89 55 17 130 16 352 -2 87 -7 117 0 217 54 85 47 215 174 277 272 26 41 53 78 59 82 21 14 66 8 86 -12z m764 5 c22 -23 28 -52 16 -76 -7 -12 -47 -67 -90 -124 -43 -56 -110 -151 -150 -211 -40 -60 -82 -119 -93 -131 -25 -28 -61 -29 -87 -3 -36 36 -26 70 61 201 82 123 216 306 251 341 22 22 71 24 92 3z m181 -260 c14 -13 25 -32 25 -41 0 -9 -22 -51 -48 -93 -57 -88 -78 -142 -91 -228 -14 -90 1 -135 98 -296 170 -284 252 -516 276 -787 6 -68 4 -78 -15 -103 -25 -32 -62 -35 -88 -9 -14 14 -21 41 -26 102 -20 248 -104 474 -275 750 -108 173 -126 250 -96 405 17 89 47 159 104 244 60 87 92 101 136 56z m-1248 -359 l28 -24 -28 -109 c-35 -136 -66 -168 -125 -127 -24 17 -29 62 -13 124 6 19 15 54 21 78 21 80 66 102 117 58z m-337 -56 c23 -23 24 -32 8 -116 -10 -54 -9 -69 6 -109 10 -25 30 -55 45 -66 15 -11 94 -47 177 -80 82 -33 236 -102 341 -154 151 -73 205 -105 247 -145 60 -57 103 -141 113 -219 l6 -49 -63 22 c-56 20 -64 27 -81 67 -11 24 -35 59 -52 78 -37 39 -333 189 -532 269 -197 80 -221 92 -259 131 -38 39 -70 104 -81 164 -10 53 14 186 37 209 24 24 63 23 88 -2z m966 12 c6 -4 16 -17 23 -29 10 -19 6 -39 -23 -125 -20 -57 -42 -146 -51 -198 -12 -70 -21 -100 -37 -112 -51 -44 -112 2 -102 76 20 146 71 327 105 369 20 27 61 36 85 19z m256 -229 c20 -18 23 -56 7 -123 -6 -25 -14 -87 -18 -139 -9 -103 -20 -121 -72 -121 -54 0 -62 22 -56 145 7 129 28 224 53 242 25 18 64 16 86 -4z m297 -492 c21 -21 33 -92 35 -199 1 -70 -14 -92 -64 -92 -41 0 -57 27 -63 105 -3 39 -9 91 -13 116 -5 39 -3 50 15 68 26 26 65 27 90 2z m-305 -54 c23 -17 35 -80 36 -185 0 -97 -4 -101 -76 -75 l-49 19 -1 49 c-1 28 -4 76 -8 107 -6 50 -5 59 13 77 24 24 59 27 85 8z"/>
 </g>
<g id="layer109" fill="#019ce5" stroke="none">
 <path d="M0 2000 l0 -2000 2000 0 2000 0 0 2000 0 2000 -2000 0 -2000 0 0 -2000z m2474 1638 c27 -38 19 -61 -55 -164 -192 -270 -300 -487 -360 -724 -30 -119 -43 -140 -88 -140 -35 0 -61 28 -61 65 0 41 45 218 75 299 73 194 225 458 364 634 36 44 46 52 76 52 24 0 39 -7 49 -22z m-404 -28 c30 -30 25 -58 -31 -145 -73 -115 -222 -258 -329 -317 -136 -75 -137 -75 -490 -52 -70 4 -91 2 -119 -13 -34 -18 -34 -19 -71 -186 -24 -106 -44 -175 -56 -188 -24 -27 -71 -22 -95 11 -19 25 -18 28 21 210 42 193 53 219 110 258 57 38 103 45 250 36 265 -15 274 -14 370 36 104 55 225 170 295 280 26 41 53 78 59 82 21 14 66 8 86 -12z m764 5 c22 -22 29 -52 16 -74 -6 -11 -52 -76 -103 -144 -51 -68 -124 -171 -162 -230 -74 -116 -96 -132 -144 -106 -27 15 -37 45 -27 83 10 41 266 406 328 468 22 22 71 24 92 3z m181 -260 c14 -13 25 -32 25 -41 0 -9 -22 -51 -48 -93 -73 -116 -93 -175 -93 -281 0 -68 13 -101 98 -237 166 -269 258 -530 279 -794 6 -80 5 -88 -15 -108 -26 -26 -72 -27 -93 -3 -10 10 -19 47 -23 92 -16 180 -77 395 -155 549 -21 42 -74 136 -119 210 -45 73 -88 159 -97 189 -42 144 25 383 142 509 37 39 66 42 99 8z m-1245 -355 c26 -26 25 -39 -5 -151 -26 -100 -45 -129 -82 -129 -23 0 -73 40 -73 58 0 6 11 54 25 108 27 105 47 134 91 134 13 0 33 -9 44 -20z m-338 -57 c21 -18 23 -51 7 -122 -13 -63 1 -119 40 -159 19 -19 80 -49 175 -86 80 -31 240 -104 355 -161 235 -116 282 -153 329 -253 31 -67 43 -204 20 -234 -24 -31 -64 -33 -92 -4 -21 20 -26 35 -26 78 0 66 -34 143 -81 182 -47 40 -382 202 -564 272 -137 54 -155 64 -207 115 -61 60 -88 123 -88 203 0 62 26 158 46 173 25 18 64 16 86 -4z m978 -3 c26 -26 26 -34 -14 -148 -18 -53 -41 -140 -50 -191 -17 -102 -34 -131 -75 -131 -60 1 -76 37 -61 138 21 134 83 325 113 344 22 14 67 8 87 -12z m244 -219 c22 -24 22 -37 2 -145 -9 -49 -16 -111 -16 -138 0 -27 -5 -58 -11 -69 -24 -47 -100 -43 -119 6 -12 30 4 205 25 285 8 30 22 61 32 67 25 19 67 16 87 -6z m-1749 -206 c46 -45 27 -87 -50 -111 -30 -10 -55 -20 -55 -23 0 -3 28 -38 63 -76 90 -103 121 -144 151 -203 26 -52 46 -142 31 -142 -4 0 -33 9 -64 20 -51 19 -59 26 -84 73 -15 29 -66 96 -114 147 -106 116 -123 144 -123 196 0 54 38 90 127 120 85 29 89 29 118 -1z m353 -135 c99 -25 224 -68 337 -115 136 -56 428 -199 448 -219 36 -37 12 -106 -37 -106 -13 0 -101 38 -197 84 -264 127 -402 182 -583 231 -96 26 -126 45 -126 82 0 29 33 63 61 63 11 0 55 -9 97 -20z m1682 -140 c24 -13 37 -60 46 -166 7 -89 -2 -119 -39 -133 -31 -12 -76 7 -82 32 -6 27 -25 196 -25 220 0 23 35 57 61 57 11 0 29 -5 39 -10z m-284 -76 c23 -34 31 -210 14 -296 -24 -126 -97 -255 -198 -350 l-60 -58 -75 27 -74 27 43 28 c67 45 160 151 192 220 46 97 56 156 49 282 -6 94 -4 112 10 128 25 28 79 24 99 -8z m-1221 -170 c77 -31 217 -95 310 -142 149 -75 178 -85 236 -90 57 -4 74 -1 133 26 75 32 99 32 123 -4 34 -52 -23 -108 -142 -139 -122 -31 -176 -18 -430 107 -88 43 -218 101 -290 128 -181 70 -179 69 -183 112 -2 28 2 40 20 53 31 21 53 16 223 -51z m1502 -231 c14 -20 14 -30 3 -66 -26 -87 -108 -233 -178 -317 l-30 -35 -56 19 c-32 11 -59 23 -62 27 -2 4 17 31 42 61 58 67 117 166 145 243 26 70 36 85 63 95 29 10 55 1 73 -27z m218 -338 c14 -13 25 -32 25 -43 0 -10 -22 -50 -48 -88 -53 -76 -61 -79 -133 -46 l-38 17 50 75 c77 116 100 129 144 85z"/>
 </g>
<g id="layer110" fill="#ffffff" stroke="none">
 <path d="M0 2000 l0 -2000 2000 0 2000 0 0 2000 0 2000 -2000 0 -2000 0 0 -2000z m2474 1638 c27 -38 19 -61 -55 -164 -194 -272 -309 -506 -359 -729 -26 -112 -40 -135 -83 -135 -72 0 -82 47 -43 200 64 247 225 558 415 798 36 44 46 52 76 52 24 0 39 -7 49 -22z m-404 -28 c30 -30 25 -58 -31 -145 -101 -158 -288 -316 -434 -367 -59 -21 -183 -23 -319 -7 -97 12 -171 7 -201 -15 -12 -8 -28 -61 -51 -167 -19 -85 -39 -166 -45 -182 -20 -49 -101 -49 -120 0 -7 19 -2 59 21 167 56 252 61 265 144 309 36 19 55 22 166 21 69 0 175 -3 235 -5 l110 -4 85 45 c104 55 225 171 295 280 26 41 53 78 59 82 21 14 66 8 86 -12z m764 5 c22 -22 29 -52 16 -74 -6 -11 -52 -76 -103 -144 -51 -68 -124 -171 -162 -230 -74 -116 -96 -132 -144 -106 -27 15 -37 45 -27 83 10 41 266 406 328 468 22 22 71 24 92 3z m181 -260 c14 -13 25 -32 25 -41 0 -9 -22 -51 -48 -93 -73 -116 -93 -175 -93 -281 0 -67 13 -101 95 -233 172 -278 262 -531 282 -790 8 -105 -6 -137 -60 -137 -52 0 -64 23 -76 141 -26 251 -94 436 -264 719 -104 173 -121 223 -113 335 10 136 70 283 153 372 37 39 66 42 99 8z m-1245 -355 c11 -11 20 -29 20 -39 0 -38 -50 -204 -67 -223 -24 -27 -71 -20 -96 14 l-20 27 26 103 c29 109 48 138 93 138 13 0 33 -9 44 -20z m-335 -60 c17 -19 18 -28 7 -99 -21 -149 5 -182 218 -266 205 -81 538 -247 594 -296 29 -26 58 -66 82 -114 32 -64 37 -84 38 -150 1 -69 -1 -78 -23 -96 -54 -44 -111 -6 -111 75 -1 62 -19 114 -55 162 -21 28 -70 56 -238 139 -117 58 -275 130 -352 160 -77 30 -156 67 -176 81 -43 30 -85 86 -105 141 -24 69 -13 207 22 261 19 29 73 30 99 2z m975 0 c26 -26 26 -31 -15 -152 -19 -57 -41 -143 -48 -191 -9 -54 -21 -95 -32 -107 -24 -26 -70 -25 -96 1 -19 19 -21 28 -15 81 14 120 80 341 112 373 22 21 70 19 94 -5z m245 -220 c21 -23 21 -39 1 -154 -9 -49 -16 -111 -16 -138 0 -39 -5 -54 -25 -73 -13 -14 -33 -25 -45 -25 -28 0 -70 43 -70 72 0 49 21 206 35 258 8 30 22 60 32 67 25 19 67 16 88 -7z m-1745 -200 c25 -25 26 -72 3 -92 -10 -9 -36 -21 -58 -28 -22 -7 -44 -15 -48 -17 -4 -3 18 -32 49 -66 184 -199 221 -295 178 -461 -11 -41 -14 -83 -11 -131 5 -67 53 -247 93 -348 17 -43 17 -50 3 -75 -25 -46 -96 -42 -118 5 -19 40 -69 188 -86 253 -38 145 -38 212 -4 371 12 53 11 59 -14 110 -14 30 -69 103 -122 163 -99 112 -125 151 -125 186 0 38 30 79 72 101 102 52 157 60 188 29z m360 -140 c172 -44 356 -118 613 -246 181 -91 201 -109 179 -159 -7 -14 -23 -30 -37 -37 -22 -10 -46 -1 -223 85 -269 131 -389 177 -624 242 -35 9 -62 23 -68 35 -26 48 1 100 52 100 16 0 65 -9 108 -20z m1670 -140 c25 -14 39 -65 47 -176 6 -90 6 -90 -22 -112 -34 -27 -56 -28 -85 -4 -19 15 -23 33 -32 140 -9 112 -8 125 8 143 19 21 55 25 84 9z m-288 -69 c11 -10 22 -45 29 -95 32 -232 -78 -480 -275 -621 -141 -100 -269 -139 -442 -133 -97 3 -107 5 -125 27 -26 31 -24 57 5 86 24 24 29 25 113 19 273 -18 530 176 583 441 8 39 10 95 6 161 l-7 102 27 21 c29 23 57 21 86 -8z m-1290 -145 c130 -48 149 -56 373 -164 190 -92 203 -97 265 -97 52 0 76 6 117 28 63 33 80 34 110 5 37 -35 31 -72 -19 -108 -62 -45 -135 -63 -233 -58 -80 4 -88 7 -281 100 -177 86 -292 135 -447 192 -68 26 -84 62 -46 110 27 34 49 33 161 -8z m1562 -247 c35 -27 33 -57 -9 -153 -97 -223 -257 -394 -471 -502 -86 -44 -94 -46 -123 -34 -34 14 -47 44 -37 84 4 18 25 34 81 61 194 93 342 249 428 450 51 119 76 137 131 94z m-1485 -119 c186 -83 253 -120 271 -152 13 -25 13 -29 -6 -55 -12 -15 -32 -29 -45 -31 -14 -2 -76 21 -144 54 -66 31 -156 72 -200 91 -44 18 -86 41 -92 50 -32 42 -2 103 50 103 17 0 91 -27 166 -60z m1721 -230 c32 -32 24 -66 -34 -155 -68 -101 -233 -261 -348 -338 -146 -98 -321 -169 -496 -204 -118 -23 -356 -23 -474 0 -151 30 -383 119 -417 161 -33 39 -2 106 49 106 14 0 58 -16 96 -34 374 -185 839 -147 1186 97 106 74 232 200 294 293 30 46 60 85 67 88 27 10 58 5 77 -14z m-1631 -149 c137 -88 254 -122 446 -128 168 -6 185 -12 185 -69 0 -24 -7 -38 -23 -48 -58 -39 -287 -28 -442 21 -153 48 -305 141 -305 187 0 8 9 25 21 40 27 34 61 33 118 -3z"/>
 </g>

</svg>